<!-- icon666.com - MILLIONS OF FREE VECTOR ICONS --><svg version="1.1" id="Layer_1" xmlns="http://www.w3.org/2000/svg" xmlns:xlink="http://www.w3.org/1999/xlink" x="0px" y="0px" viewBox="0 0 512.001 512.001" style="enable-background:new 0 0 512.001 512.001;" xml:space="preserve"><g><g><path d="M504.902,61.183h-6.825V7.672c0-3.92-3.178-7.098-7.098-7.098h-52.419c-3.92,0-7.098,3.178-7.098,7.098v53.511h-9.85 c-2.256-4.412-5.52-8.391-9.747-11.558c-5.868-4.391-12.829-6.712-20.132-6.712c-10.529,0-20.578,5.016-26.895,13.419 l-3.756,4.851h-72.113c-10.208-4.729-21.441-7.311-32.968-7.311c-11.527,0-22.76,2.583-32.968,7.311h-69.774l-3.755-4.85 c-6.318-8.404-16.368-13.42-26.896-13.42c-7.303,0-14.263,2.321-20.135,6.714c-4.157,3.115-7.463,7.063-9.763,11.556H80.539V7.672 c0-3.92-3.178-7.098-7.098-7.098H21.022c-3.921,0-7.098,3.178-7.098,7.098v53.511H7.098C3.178,61.183,0,64.361,0,68.281 s3.178,7.098,7.098,7.098h6.825v53.511c0,3.92,3.178,7.098,7.098,7.098h52.419c3.92,0,7.098-3.178,7.098-7.098V75.38h8.493 c-0.275,7.583,1.998,14.975,6.574,21.152l79.944,118.691c3.094,4.593,4.73,9.949,4.73,15.488l0.052,246.458 c0,18.25,14.536,33.607,32.396,34.232c9.231,0.335,17.935-3.001,24.558-9.389c6.632-6.396,10.284-14.993,10.284-24.209V365.166 c0-5.289,3.923-9.701,8.932-10.044c2.832-0.194,5.496,0.8,7.497,2.8c1.82,1.82,2.824,4.235,2.824,6.797v112.496 c0,18.552,14.817,33.896,33.031,34.206c0.198,0.003,0.394,0.005,0.592,0.005c8.975,0,17.394-3.48,23.777-9.849 c6.345-6.359,9.838-14.802,9.838-23.775V230.709c0-5.539,1.636-10.894,4.729-15.488l79.944-118.691 c4.695-6.34,6.814-13.81,6.555-21.152h6.173v53.511c0,3.92,3.178,7.098,7.098,7.098h52.419c3.92,0,7.098-3.178,7.098-7.098V75.379 h6.825c3.92,0,7.098-3.178,7.098-7.098S508.822,61.183,504.902,61.183z M66.342,121.792H54.33V68.281 c0-3.92-3.178-7.098-7.098-7.098s-7.098,3.178-7.098,7.098v53.511H28.12V14.771h12.013V40.98c0,3.92,3.178,7.098,7.098,7.098 S54.33,44.9,54.33,40.98V14.771h12.013V121.792z M350.091,75.38l-13.024,16.824c-3.427-2.133-7.455-3.386-11.781-3.386h-3.879 c-3.311-4.934-7.148-9.431-11.412-13.438H350.091z M308.969,133.592h11.503c-0.553,35.09-29.251,63.47-64.471,63.47 s-63.918-28.379-64.471-63.47h93.959c3.92,0,7.098-3.178,7.098-7.098s-3.178-7.098-7.098-7.098h-98.775 c-4.517,0-8.19-3.675-8.19-8.19c0-4.516,3.674-8.19,8.19-8.19h138.572c4.516,0,8.19,3.675,8.19,8.19c0,4.516-3.674,8.19-8.19,8.19 h-16.317c-3.92,0-7.098,3.178-7.098,7.098S305.048,133.592,308.969,133.592z M255.999,68.068c18.067,0,35.261,7.723,47.357,20.749 h-94.713C220.739,75.791,237.935,68.068,255.999,68.068z M202.005,75.38c-4.263,4.007-8.101,8.505-11.412,13.438h-3.879 c-3.658,0-7.104,0.9-10.157,2.463l-12.309-15.9H202.005z M107.288,88.461c-0.067-0.099-0.135-0.197-0.208-0.292 c-3.108-4.149-4.414-9.261-3.677-14.396c0.738-5.135,3.43-9.676,7.578-12.784c3.394-2.539,7.414-3.881,11.626-3.881 c6.191,0,11.866,2.836,15.569,7.782c0.023,0.031,0.046,0.06,0.069,0.091l28.304,36.562c-1.41,2.93-2.222,6.198-2.222,9.66 c0,8.991,5.339,16.74,13.003,20.298c-0.004,0.356-0.023,0.704-0.023,1.063c0,7.441,1.06,14.635,2.999,21.462l-17.244,17.244 L107.288,88.461z M319.864,477.801c0,5.187-2.021,10.07-5.68,13.737c-3.766,3.759-8.752,5.781-14.09,5.689 c-10.518-0.179-19.075-9.156-19.075-20.012v-82.956h38.844V477.801z M327.015,207.292c-4.678,6.945-7.151,15.043-7.151,23.418 v81.645h-11.441c-3.92,0-7.098,3.178-7.098,7.098s3.178,7.098,7.098,7.098h11.441v53.511H281.02v-15.343 c0-6.354-2.48-12.333-6.983-16.836c-4.873-4.873-11.606-7.393-18.506-6.925c-12.424,0.852-22.158,11.484-22.158,24.208v14.897 h-24.328c-3.92,0-7.098,3.178-7.098,7.098s3.178,7.098,7.098,7.098h24.328v83.542c0,5.326-2.111,10.295-5.942,13.99 c-3.824,3.688-8.876,5.612-14.198,5.42c-10.313-0.36-18.704-9.352-18.704-20.044l-0.052-150.616h85.553 c3.92,0,7.098-3.178,7.098-7.098s-3.178-7.098-7.098-7.098h-85.553V230.71c0-8.374-2.472-16.471-7.151-23.418l-16.181-24.024 l14.844-14.844c13.065,25.406,39.534,42.835,70.013,42.835c31.389,0,58.534-18.479,71.156-45.124l16.48,16.48L327.015,207.292z M407.259,88.17c-0.071,0.095-0.14,0.192-0.206,0.29l-55.337,82.157l-19.299-19.299c1.476-6.014,2.276-12.291,2.276-18.755 c0-0.358-0.019-0.707-0.023-1.063c7.664-3.558,13.002-11.307,13.002-20.298c0-2.71-0.509-5.3-1.396-7.707l29.816-38.517 c0.023-0.029,0.046-0.06,0.069-0.091c3.703-4.946,9.378-7.782,15.569-7.782c4.212,0,8.233,1.342,11.623,3.879 C411.925,67.411,413.677,79.605,407.259,88.17z M483.88,121.792h-12.013V68.281c0-3.92-3.178-7.098-7.098-7.098 s-7.098,3.178-7.098,7.098v53.511h-12.013V14.771h12.013V40.98c0,3.92,3.178,7.098,7.098,7.098s7.098-3.178,7.098-7.098V14.771 h12.013V121.792z" fill="#000000" style="fill: rgb(16, 185, 129);"></path></g></g></svg>